# xmcd
#
# Track frame offsets:
#	150
#	18132
#	32855
#	51223
#	64023
#
# Disc length: 1203 seconds
#
# Revision: 2
# Processed by: cddbd v1.5.1PL2 Copyright (c) Steve Scherf et al.
# Submitted via: audiograbber 1.83.01
#
DISCID=3804b105
DTITLE=Beccy Cole - Wild At Heart - Life Goes On Bonus Disc
DYEAR=2002
DGENRE=Country
TTITLE0=Life Goes On
TTITLE1=How Wrong Is It (with Adam Harvey)
TTITLE2=Big Girls (Bluegrass Version)
TTITLE3=That`s What I Should Have Said
TTITLE4=Rockabilly Fever (Live)
EXTD=YEAR: 2002
EXTT0=
EXTT1=
EXTT2=
EXTT3=
EXTT4=
PLAYORDER=
